<svg version="1.2" xmlns="http://www.w3.org/2000/svg" viewBox="0 0 512 512" width="512" height="512">
	<title>dasfasdfsdfsadfsadf</title>
	<style>
		.s0 { fill: #40b740 } 
	</style>
	<path id="Shape 1" class="s0" d="m141.2 58h97.1c10 0 18.2 8.1 18.2 18.2v97.1c0 10-8.2 18.2-18.2 18.2h-97.1c-10.1 0-18.2-8.2-18.2-18.2v-97.1c0-10.1 8.1-18.2 18.2-18.2zm0 0h97.1c10 0 18.2 8.1 18.2 18.2v97.1c0 10-8.2 18.2-18.2 18.2h-97.1c-10.1 0-18.2-8.2-18.2-18.2v-97.1c0-10.1 8.1-18.2 18.2-18.2z"/>
	<path id="Shape 1 copy" class="s0" d="m390 188.1v133.4h-133.5v-133.4zm-115.3 0h97.1c10 0 18.2 8.1 18.2 18.1v97.1c0 10.1-8.2 18.2-18.2 18.2h-97.1c-10.1 0-18.2-8.1-18.2-18.2v-97.1c0-10 8.1-18.1 18.2-18.1z"/>
	<path id="Shape 1 copy 2" class="s0" d="m141.2 321.5h97.1c10 0 18.2 8.1 18.2 18.2v97.1c0 10-8.2 18.2-18.2 18.2h-97.1c-10.1 0-18.2-8.2-18.2-18.2v-97.1c0-10.1 8.1-18.2 18.2-18.2zm115.3 0v133.5h-133.5v-133.5z"/>
</svg>